PathFileType	4	(X/Y/Z)	C:/Users/opensim2020/Desktop/walking_exp_matlab/subject01_walking12_straight_01.trc																																																																																																																																		
DataRate	CameraRate	NumFrames	NumMarkers	Units	OrigDataRate	OrigDataStartFrame	OrigNumFrames																																																																																																																														
100	100	5	44	mm	100	715	193																																																																																																																														
Frame#	Time	LFHD			RFHD			LBHD			RBHD			C7			T10			CLAV			STRN			RBAK			LSHO			LUPA			LELB			LFRM			LWRA			LWRB			LFIN			RSHO			RUPA			RELB			RFRM			RWRA			RWRB			RFIN			LASI			RASI			LPSI			RPSI			LTHI			LKNE			LTIB			LANK			LHEE			LTOE			RTHI			RKNE			RTIB			RANK			RHEE			RTOE			*39			*40			*41			*42			*43		
		X1	Y1	Z1	X2	Y2	Z2	X3	Y3	Z3	X4	Y4	Z4	X5	Y5	Z5	X6	Y6	Z6	X7	Y7	Z7	X8	Y8	Z8	X9	Y9	Z9	X10	Y10	Z10	X11	Y11	Z11	X12	Y12	Z12	X13	Y13	Z13	X14	Y14	Z14	X15	Y15	Z15	X16	Y16	Z16	X17	Y17	Z17	X18	Y18	Z18	X19	Y19	Z19	X20	Y20	Z20	X21	Y21	Z21	X22	Y22	Z22	X23	Y23	Z23	X24	Y24	Z24	X25	Y25	Z25	X26	Y26	Z26	X27	Y27	Z27	X28	Y28	Z28	X29	Y29	Z29	X30	Y30	Z30	X31	Y31	Z31	X32	Y32	Z32	X33	Y33	Z33	X34	Y34	Z34	X35	Y35	Z35	X36	Y36	Z36	X37	Y37	Z37	X38	Y38	Z38	X39	Y39	Z39	X40	Y40	Z40	X41	Y41	Z41	X42	Y42	Z42	X43	Y43	Z43	X44	Y44	Z44
																																																																																																																																					
97	0.96	-98.47106	1678.52209	-1140.72205	-96.94881	1685.29822	-1027.19287	-205.27364	1614.41235	-1143.98669	-206.39008	1619.57129	-1023.47174	-226.65472	1436.30615	-1100.30103	-272.82281	1145.83728	-1081.5979	-85.12853	1364.80835	-1087.32751	-46.14833	1207.948	-1086.69849	-290.31461	1245.35913	-1020.48975	-134.86946	1392.29041	-1252.14612	-144.42448	1208.13843	-1337.80176	-132.45145	1056.14417	-1340.93225	-62.97692	965.72803	-1367.99622	50.77033	884.69824	-1357.35876	-0.90785	860.33337	-1375.3396	65.69101	811.65228	-1391.55615	-156.86551	1397.52722	-940.68152	-236.44824	1204.98267	-841.76947	-248.21886	1081.44006	-840.17621	-244.3185	962.22662	-809.19641	-192.02832	830.75342	-830.39465	-232.8674	841.37714	-789.4151	-213.96477	756.98315	-793.1496	-107.52621	930.6438	-1180.31592	-106.976	937.51862	-964.52655	-293.82886	948.17358	-1124.10291	-288.99509	947.15881	-977.71088	-173.09082	600.53027	-1229.17981	-198.81697	467.53738	-1211.27966	-270.70078	291.62137	-1215.11194	-324.51926	79.31773	-1161.65601	-373.99689	56.35358	-1109.81335	-180.28035	32.5293	-1162.35034	-54.39345	623.41364	-897.98529	-4.26477	471.99976	-925.21277	-85.248	314.39716	-930.30493	-144.39128	120.55782	-987.12231	-190.47879	90.09405	-1046.77136	-22.70192	53.69512	-967.79828	-112.33573	1716.42957	-1051.11414	1973.02844	1024.09082	-3102.01196	2012.51965	1021.96948	-3140.73511	NaN	NaN	NaN	NaN	NaN	NaN
98	0.97	-88.51939	1678.19824	-1139.1521	-86.93564	1684.86401	-1025.75366	-195.14404	1614.23206	-1142.73584	-196.38124	1619.06641	-1022.33527	-216.26071	1435.91345	-1099.55811	-262.92148	1145.63159	-1081.14905	-74.94851	1364.45251	-1086.677	-36.0695	1207.53491	-1086.43005	-280.27206	1244.88684	-1020.38623	-124.47197	1392.33215	-1251.48242	-133.34985	1208.49609	-1337.61829	-120.0196	1056.58252	-1341.46716	-48.5938	967.49835	-1368.69312	66.99133	889.25244	-1357.99719	15.94171	863.88641	-1376.43298	83.63815	816.64655	-1392.5094	-146.99681	1396.91455	-939.77887	-227.65904	1204.51892	-841.69415	-240.22708	1081.04211	-840.38531	-237.17395	961.77606	-809.59973	-186.35521	829.81818	-831.38654	-226.55414	840.70453	-790.02997	-208.42618	756.24078	-793.94556	-98.50544	930.06696	-1180.7085	-96.71243	937.00305	-964.77222	-284.54352	947.80768	-1123.42041	-278.85318	946.7301	-977.25549	-167.89113	600.53766	-1229.36707	-195.15352	467.61694	-1211.43201	-268.49976	292.40741	-1215.07178	-324.01263	80.49834	-1161.52393	-373.57556	58.2013	-1109.59338	-180.44154	32.68816	-1162.3584	-44.08345	622.94061	-898.62067	7.10569	471.93652	-926.49854	-65.22411	309.68375	-930.53357	-112.73981	112.32862	-986.41162	-156.57582	78.75216	-1045.59399	13.40393	53.56781	-967.99695	-102.31036	1716.30542	-1049.06824	1973.12427	1023.38544	-3101.89575	2012.51538	1021.97028	-3140.73657	NaN	NaN	NaN	NaN	NaN	NaN
99	0.98	-78.39222	1677.99207	-1137.68103	-76.73392	1684.36572	-1024.27173	-184.98909	1613.95837	-1141.57825	-186.25604	1618.54858	-1021.03552	-206.00677	1435.62634	-1098.79785	-252.94945	1145.36902	-1080.49866	-64.70595	1363.99963	-1085.90454	-26.01335	1207.05676	-1086.06274	-270.18338	1244.45667	-1020.05688	-114.08765	1392.2699	-1250.71777	-122.26295	1208.79907	-1337.43188	-107.69474	1056.89465	-1341.9447	-34.26328	969.3587	-1369.22559	82.94402	893.68243	-1358.40259	32.58738	867.17499	-1377.1499	101.3161	821.71655	-1393.24866	-136.85571	1396.33398	-939.09882	-219.08496	1203.82874	-841.63702	-232.0858	1080.67688	-840.52313	-229.81152	961.28247	-810.00116	-179.77534	829.02271	-831.84912	-220.17853	840.19055	-790.70605	-202.40596	755.56689	-794.65997	-89.49796	929.5871	-1181.09521	-86.16689	936.50427	-964.97662	-275.03409	947.5921	-1122.60461	-268.56631	946.33783	-976.67358	-162.38051	600.5672	-1229.38696	-191.34267	467.73367	-1211.5437	-266.30283	293.3548	-1214.94421	-323.3956	81.90302	-1161.25867	-373.13235	60.24033	-1109.37854	-180.48857	32.71194	-1162.31689	-34.40646	621.95288	-899.26135	17.3537	471.46475	-927.92664	-45.57335	305.61234	-930.29517	-80.66358	104.93819	-985.53766	-123.499	69.29626	-1044.78247	49.03331	54.02298	-967.95105	-92.28772	1715.65735	-1047.91504	1973.23022	1023.49835	-3101.97144	2012.53137	1022.14722	-3140.81201	NaN	NaN	NaN	NaN	NaN	NaN
100	0.99	-68.2002	1677.77429	-1136.26917	-66.63439	1683.81885	-1022.67444	-174.80302	1613.56201	-1140.21643	-176.13707	1617.88025	-1019.70074	-195.64088	1435.18799	-1097.8916	-242.9894	1145.05237	-1079.703	-54.43998	1363.60925	-1085.46912	-15.83813	1206.53748	-1085.65222	-260.10794	1243.95447	-1019.60736	-103.64044	1392.20215	-1249.75793	-111.09986	1209.01196	-1337.04749	-95.41014	1057.19226	-1342.32166	-20.11934	971.20984	-1369.67224	98.67358	897.97571	-1358.61536	48.86591	870.54553	-1377.60791	118.68711	826.69489	-1393.8147	-126.70451	1395.61877	-938.13806	-210.004	1203.50684	-841.38757	-223.88667	1080.22217	-840.49957	-222.27559	960.79272	-810.26477	-172.96709	828.17664	-832.30011	-212.75941	839.61212	-791.17798	-196.02672	754.87238	-795.24121	-80.33678	929.16498	-1181.46411	-75.5051	935.97803	-965.21503	-265.48602	947.30469	-1121.75732	-258.73184	946.18835	-976.07135	-156.58904	600.69739	-1229.36047	-187.33641	468.11426	-1211.70178	-264.12973	294.45166	-1214.85425	-322.80084	83.37308	-1161.02893	-372.6098	62.18317	-1109.02991	-180.51468	32.758	-1162.46521	-25.62783	620.33191	-900.01123	27.22388	470.8147	-929.28333	-26.4004	301.96744	-929.92023	-48.45603	98.39948	-984.26404	-90.0676	60.44469	-1043.19983	84.1813	55.76857	-967.74872	-82.15779	1715.43481	-1045.98499	1973.0426	1023.47247	-3101.90918	2012.43127	1021.88318	-3140.60693	NaN	NaN	NaN	NaN	NaN	NaN
101	1	-57.99301	1677.37524	-1134.75317	-56.58418	1683.15869	-1021.01361	-164.56792	1613.10254	-1138.82776	-166.03175	1617.17236	-1018.33307	-185.45477	1434.84326	-1097.04028	-233.06628	1144.71057	-1078.70227	-44.18364	1363.04468	-1084.15503	-5.70518	1205.96033	-1085.20056	-249.9176	1243.33154	-1019.00427	-93.14645	1392.07861	-1248.77271	-100.52757	1209.24622	-1336.64905	-83.17029	1057.4707	-1342.5387	-6.18265	972.79504	-1369.87695	114.07675	902.19031	-1358.72778	64.94328	873.53021	-1377.70459	135.74625	831.67169	-1394.34619	-116.52787	1394.86548	-937.2074	-201.16507	1203.01965	-841.08997	-215.58511	1079.75403	-840.50861	-214.59081	960.20801	-810.48279	-165.63799	827.51086	-832.56305	-205.33556	838.92255	-791.49854	-188.97607	754.32416	-795.71851	-71.08594	928.8573	-1181.83569	-64.60838	935.45258	-965.42108	-255.80605	947.0108	-1120.71533	-247.71947	945.41302	-975.2074	-150.58723	600.90491	-1229.3623	-183.24478	468.46976	-1211.80676	-261.90884	295.69016	-1214.80444	-322.09238	85.08026	-1160.77319	-371.96149	64.3311	-1108.63013	-180.53871	32.71606	-1162.42834	-17.66326	618.45972	-900.62677	36.21748	469.64648	-930.70959	-7.87353	298.71326	-929.47913	-16.9011	93.10356	-982.74762	-56.23852	52.19704	-1040.60828	118.89143	59.14504	-967.46509	-72.13306	1714.45471	-1044.64233	1973.0304	1023.86084	-3102.09375	2012.47827	1021.95447	-3140.76904	NaN	NaN	NaN	NaN	NaN	NaN
